# AST/ASF file generated using VICON BodyLanguage
# -----------------------------------------------
:version 1.10
:name VICON
:units
  mass 1.0
  length 0.45
  angle deg
:documentation
   .ast/.asf automatically generated from VICON data using
   VICON BodyBuilder and BodyLanguage model FoxedUp or BRILLIANT.MOD
:root
   order TX TY TZ RX RY RZ
   axis XYZ
   position 0 0 0  
   orientation 0 0 0 
:bonedata
  begin
     id 1 
     name lhipjoint
     direction 0.521689 -0.742065 0.420928 
     length 2.47002 
     axis 0 0 0  XYZ
  end
  begin
     id 2 
     name lfemur
     direction 0.34202 -0.939693 0  
     length 7.24654  
     axis 0 0 20  XYZ
    dof rx ry rz
    limits (-160.0 20.0)
           (-70.0 70.0)
           (-60.0 70.0)
  end
  begin
     id 3 
     name ltibia
     direction 0.34202 -0.939693 0   
     length 8.04849   
     axis 0 0 20   XYZ
    dof rx
    limits (-10.0 170.0)
  end
  begin
     id 4 
     name lfoot
     direction 0.0745411 -0.2048 0.975961   
     length 1.72367   
     axis -90 7.62852e-016 20   XYZ
    dof rx rz
    limits (-45.0 90.0)
           (-70.0 20.0)
  end
  begin
     id 5 
     name ltoes
     direction 1.53556e-011 -4.21901e-011 1   
     length 0.87311   
     axis -90 7.62852e-016 20   XYZ
    dof rx
    limits (-90.0 20.0)
  end
  begin
     id 6 
     name rhipjoint
     direction -0.52849 -0.738415 0.418857   
     length 2.48223  
     axis 0 0 0  XYZ 
  end
  begin
     id 7 
     name rfemur
     direction -0.34202 -0.939693 0   
     length 7.15571   
     axis 0 0 -20   XYZ
    dof rx ry rz
    limits (-160.0 20.0)
           (-70.0 70.0)
           (-70.0 60.0)
  end
  begin
     id 8 
     name rtibia
     direction -0.34202 -0.939693 0   
     length 7.81659   
     axis 0 0 -20   XYZ
    dof rx
    limits (-10.0 170.0)
 end
 begin
     id 9 
     name rfoot
     direction -0.0917348 -0.252039 0.963359   
     length 1.84382  
     axis -90 -7.62852e-016 -20   XYZ
    dof rx rz
    limits (-45.0 90.0)
           (-20.0 70.0)
  end
  begin
     id 10 
     name rtoes
     direction -1.53551e-011 -4.21879e-011 1   
     length 0.927771   
     axis -90 -7.62852e-016 -20   XYZ
    dof rx
    limits (-90.0 20.0)
  end
  begin
     id 11 
     name lowerback
     direction 0.00583058 0.999822 0.0179296   
     length 2.1429   
     axis 0 0 0   XYZ
    dof rx ry rz
    limits (-20.0 45.0)
           (-30.0 30.0)
           (-30.0 30.0)
  end
  begin
     id 12 
     name upperback
     direction -0.0137999 0.999752 -0.0175071   
     length 2.14252   
     axis 0 0 0   XYZ
    dof rx ry rz
    limits (-20.0 45.0)
           (-30.0 30.0)
           (-30.0 30.0)
  end
  begin
     id 13 
     name thorax
     direction -0.0158036 0.99955 -0.0254909   
     length 2.1383   
     axis 0 0 0   XYZ
    dof rx ry rz
    limits (-20.0 45.0)
           (-30.0 30.0)
           (-30.0 30.0)
  end
  begin
     id 14 
     name lowerneck
     direction -0.0101179 0.999403 -0.0330262   
     length 1.65808   
     axis 0 0 0   XYZ
    dof rx ry rz
    limits (-20.0 45.0)
           (-30.0 30.0)
           (-30.0 30.0)
  end
  begin
     id 15 
     name upperneck
     direction 0.0497734 0.995978 -0.074501   
     length 1.5897   
     axis 0 0 0   XYZ
    dof rx ry rz
    limits (-20.0 45.0)
           (-30.0 30.0)
           (-30.0 30.0)
  end
  begin
     id 16
     name head
     direction 0.0189524 0.999519 -0.0245438  
     length 1.74024  
     axis 0 0 0   XYZ
    dof rx ry rz
    limits (-20.0 45.0)
           (-30.0 30.0)
           (-30.0 30.0)
  end
  begin
     id 17 
     name lclavicle
     direction 0.945604 0.324422 0.0241537  
     length 3.59089  
     axis 0 0 0   XYZ
    dof ry rz
    limits (-20.0 10.0)
           (0.0 20.0)
  end
  begin
     id 18 
     name lhumerus
     direction 1 -4.48964e-011 -2.63524e-027   
     length 5.2391   
     axis 180 -30 -90   XYZ
    dof rx ry rz
    limits (-60.0 90.0)
           (-90.0 90.0)
           (-90.0 90.0)
  end
  begin
     id 19
     name lradius
     direction 1 -4.48969e-011 3.86978e-028   
     length 3.31467   
     axis 180 -30 -90   XYZ
    dof rx
    limits (-10.0 170.0)
  end
  begin
     id 20
     name lwrist
     direction 1 -4.48963e-011 7.20928e-028   
     length 1.65734   
     axis -5.52449e-016 90 90   XYZ
    dof ry
    limits (-180.0 0.0)
 end
  begin
     id 21 
     name lhand
     direction 1 -4.48964e-011 1.44186e-027   
     length 0.9659   
     axis -9.20027e-016 90 90   XYZ
    dof rx rz
    limits (-90.0 90.0)
           (-45.0 45.0)
  end
  begin
     id 22 
     name lfingers
     direction 1 -4.48965e-011 2.88371e-027   
     length 0.778733   
     axis -1.84005e-015 90 90   XYZ
    dof rx
    limits (0.0 90.0)
  end
  begin
     id 23
     name lthumb
     direction 0.707107 -6.34931e-011 0.707107   
     length 1.11811   
     axis -90 45 2.85299e-015   XYZ
    dof rx rz
    limits (-45.0 45.0)
           (-45.0 45.0)
  end
  begin
     id 24 
     name rclavicle
     direction -0.923762 0.370785 0.0958234   
     length 3.54196  
     axis 0 0 0   XYZ 
    dof ry rz
    limits (-10.0 20.0)
           (-20.0 0.0)
  end
  begin
     id 25 
     name rhumerus
     direction -1 -4.48966e-011 1.18702e-017  
     length 5.30252   
     axis 180 30 90   XYZ
    dof rx ry rz
    limits (-90.0 60.0)
           (-90.0 90.0)
           (-90.0 90.0)
  end
  begin
     id 26 
     name rradius
     direction -1 -4.48966e-011 4.46736e-027   
     length 3.67875   
     axis 180 30 90   XYZ
    dof rx
    limits (-10.0 170.0)
  end
  begin
     id 27 
     name rwrist
     direction -1 -4.48966e-011 7.20928e-028   
     length 1.83937   
     axis -5.52449e-016 -90 -90   XYZ
    dof ry
    limits (-180.0 0.0)
  end
  begin
     id 28
     name rhand
     direction -1 -4.48973e-011 1.44186e-027   
     length 0.594811   
     axis -9.20027e-016 -90 -90   XYZ
    dof rx rz
    limits (-90.0 90.0)
           (-45.0 45.0)
  end
  begin
     id 29
     name rfingers
     direction -1 -4.48963e-011 2.88371e-027   
     length 0.479552   
     axis -1.84005e-015 -90 -90   XYZ
    dof rx
    limits (0.0 90.0)
  end
  begin
     id 30
     name rthumb
     direction -0.707107 -6.34932e-011 0.707107   
     length 0.688544   
     axis -90 -45 -2.85299e-015   XYZ
    dof rx rz
    limits (-45.0 45.0)
           (-45.0 45.0)
  end
:hierarchy
  begin
    root lhipjoint rhipjoint lowerback
    lhipjoint lfemur
    lfemur ltibia
    ltibia lfoot
    lfoot ltoes
    rhipjoint rfemur
    rfemur rtibia
    rtibia rfoot
    rfoot rtoes
    lowerback upperback
    upperback thorax
    thorax lowerneck lclavicle rclavicle
    lowerneck upperneck
    upperneck head
    lclavicle lhumerus
    lhumerus lradius
    lradius lwrist
    lwrist lhand lthumb
    lhand lfingers
    rclavicle rhumerus
    rhumerus rradius
    rradius rwrist
    rwrist rhand rthumb
    rhand rfingers
  end

#!OML:ASF E:\acrobat2\Project_11_07_03\Capture day 1\Session 1\Acrobat.ASF
:FULLY-SPECIFIED
:DEGREES
139
root 8.00484 17.5632 -29.3547 15.3619 -25.4731 -10.273
lowerback 2.79995 -0.796039 5.96216
upperback 0.733256 -0.89777 -0.438209
thorax -0.913525 -0.460085 -3.76491
lowerneck -1.53844 7.65733 5.15554
upperneck 4.39532 10.7165 -13.2203
head 2.55794 5.11389 -4.45244
rclavicle -2.22639e-014 3.33958e-014
rhumerus 45.0995 -44.5312 -37.7877
rradius 36.8179
rwrist -13.7994
rhand -25.7249 -38.7476
rfingers 7.12502
rthumb 0.811488 -68.7258
lclavicle -2.22639e-014 3.33958e-014
lhumerus 2.63091 -7.40501 31.0542
lradius 25.3946
lwrist 9.26714
lhand -13.1694 -10.5279
lfingers 7.12502
lthumb 12.9299 19.0515
rfemur 3.6242 6.48305 27.9483
rtibia 5.18205
rfoot -26.0381 -9.84903
rtoes -12.8874
lfemur -49.0026 15.8915 -8.71175
ltibia 45.0532
lfoot -0.782739 -0.981717
ltoes 31.7459
140
root 7.98626 17.5425 -29.2664 15.7789 -25.4355 -10.6429
lowerback 3.0528 -0.747612 5.92071
upperback 0.798023 -0.821223 -0.581687
thorax -0.98155 -0.422422 -3.89102
lowerneck -1.58195 7.63832 5.11551
upperneck 4.37519 10.6849 -13.1814
head 2.55201 5.0972 -4.43467
rclavicle 1.11319e-014 -1.11319e-014
rhumerus 47.072 -44.4167 -38.2732
rradius 36.8932
rwrist -13.4436
rhand -25.9576 -38.7311
rfingers 7.12502
rthumb 0.586741 -68.71
lclavicle 1.11319e-014 -1.11319e-014
lhumerus 3.40706 -6.83538 30.1581
lradius 25.8048
lwrist 9.41639
lhand -13.4306 -10.6454
lfingers 7.12502
lthumb 12.6781 18.9498
rfemur 3.65529 6.5222 28.2709
rtibia 5.22186
rfoot -26.3569 -9.7201
rtoes -12.9119
lfemur -49.5489 16.0751 -8.59797
ltibia 45.0894
lfoot -1.16543 -0.926345
ltoes 31.7617
141
root 7.9666 17.5211 -29.1773 16.1996 -25.3625 -11.0041
lowerback 3.31093 -0.703619 5.86141
upperback 0.859971 -0.751351 -0.730301
thorax -1.05572 -0.388331 -4.01265
lowerneck -1.61617 7.60534 5.06527
upperneck 4.33818 10.6332 -13.1436
head 2.53722 5.07129 -4.41734
rclavicle -3.77691e-014 2.70347e-014
rhumerus 49.0483 -44.3096 -38.8356
rradius 36.9281
rwrist -13.0361
rhand -26.1584 -38.6386
rfingers 7.12502
rthumb 0.39276 -68.618
lclavicle -3.77691e-014 2.70347e-014
lhumerus 4.2183 -6.28709 29.3077
lradius 26.1554
lwrist 9.60626
lhand -13.7635 -10.8106
lfingers 7.12502
lthumb 12.3571 18.8042
rfemur 3.67517 6.56514 28.6027
rtibia 5.27165
rfoot -26.6966 -9.66599
rtoes -13.1466
lfemur -50.1348 16.2539 -8.51661
ltibia 45.1968
lfoot -1.59894 -0.856755
ltoes 31.5441
142
root 7.94604 17.4988 -29.0868 16.6154 -25.2689 -11.3304
lowerback 3.5605 -0.658568 5.76082
upperback 0.921083 -0.682898 -0.89186
thorax -1.12555 -0.354773 -4.125
lowerneck -1.65077 7.55841 4.99115
upperneck 4.28836 10.5607 -13.0812
head 2.5142 5.03575 -4.39016
rclavicle 1.59028e-014 6.36111e-015
rhumerus 50.9736 -44.1914 -39.4074
rradius 36.9446
rwrist -12.6234
rhand -26.3605 -38.5072
rfingers 7.12502
rthumb 0.197578 -68.4868
lclavicle 1.59028e-014 6.36111e-015
lhumerus 5.07496 -5.76589 28.5054
lradius 26.4444
lwrist 9.86117
lhand -14.1382 -11.0011
lfingers 7.12502
lthumb 11.9959 18.6352
rfemur 3.68105 6.5978 28.9033
rtibia 5.32806
rfoot -27.0364 -9.67035
rtoes -13.6176
lfemur -50.7558 16.4184 -8.49317
ltibia 45.3738
lfoot -2.08412 -0.773236
ltoes 31.1785
143
root 7.92473 17.4757 -28.9933 17.0093 -25.1725 -11.6056
lowerback 3.79685 -0.608805 5.60839
upperback 0.982009 -0.612106 -1.07276
thorax -1.18741 -0.319726 -4.22892
lowerneck -1.64324 7.50951 4.90821
upperneck 4.18176 10.4807 -13.0209
head 2.46649 4.9999 -4.36518
rclavicle -1.94809e-014 -2.70347e-014
rhumerus 52.7944 -44.0407 -39.9172
rradius 36.9604
rwrist -12.252
rhand -26.5845 -38.3978
rfingers 7.12502
rthumb -0.0187627 -68.3776
lclavicle -1.94809e-014 -2.70347e-014
lhumerus 5.96519 -5.2901 27.7488
lradius 26.68
lwrist 10.1919
lhand -14.54 -11.1783
lfingers 7.12502
lthumb 11.6084 18.4802
rfemur 3.69368 6.60252 29.1405
rtibia 5.37464
rfoot -27.3599 -9.68318
rtoes -14.2217
lfemur -51.3809 16.5606 -8.54055
ltibia 45.6034
lfoot -2.60606 -0.675431
ltoes 30.8105
144
root 7.90281 17.452 -28.8962 17.3734 -25.0796 -11.824
lowerback 4.00964 -0.55483 5.39989
upperback 1.04582 -0.540778 -1.27177
thorax -1.23262 -0.283764 -4.32061
lowerneck -1.5687 7.46525 4.8096
upperneck 4.02802 10.4032 -12.9542
head 2.39292 4.9692 -4.33913
rclavicle -3.18055e-014 -1.11319e-014
rhumerus 54.5122 -43.8489 -40.3565
rradius 36.9864
rwrist -11.9327
rhand -26.8259 -38.3571
rfingers 7.12502
rthumb -0.251968 -68.3367
lclavicle -3.18055e-014 -1.11319e-014
lhumerus 6.87244 -4.85505 27.0443
lradius 26.8627
lwrist 10.5574
lhand -14.9768 -11.3036
lfingers 7.12502
lthumb 11.1871 18.3781
rfemur 3.72603 6.57635 29.305
rtibia 5.40443
rfoot -27.6598 -9.67475
rtoes -14.8272
lfemur -51.9921 16.6738 -8.66226
ltibia 45.8715
lfoot -3.15144 -0.563161
ltoes 30.4068
145
root 7.88036 17.4272 -28.7954 17.7131 -24.9818 -11.9989
lowerback 4.20231 -0.500404 5.156
upperback 1.11289 -0.473047 -1.49019
thorax -1.26349 -0.249099 -4.41275
lowerneck -1.44434 7.41352 4.69919
upperneck 3.8344 10.3115 -12.87
head 2.29663 4.93487 -4.3093
rclavicle -4.77083e-014 3.65764e-014
rhumerus 56.1171 -43.6202 -40.7256
rradius 37.0377
rwrist -11.6897
rhand -27.0656 -38.383
rfingers 7.12502
rthumb -0.483425 -68.3622
lclavicle -4.77083e-014 3.65764e-014
lhumerus 7.7955 -4.44395 26.3881
lradius 26.9884
lwrist 10.9053
lhand -15.4709 -11.3603
lfingers 7.12502
lthumb 10.7105 18.3467
rfemur 3.77601 6.52623 29.4172
rtibia 5.42766
rfoot -27.943 -9.64001
rtoes -15.3422
lfemur -52.5955 16.7557 -8.84074
ltibia 46.1836
lfoot -3.71401 -0.445811
ltoes 29.7885
146
root 7.85729 17.4011 -28.692 18.0496 -24.8515 -12.1546
lowerback 4.35989 -0.449397 4.90715
upperback 1.19364 -0.413515 -1.72472
thorax -1.26162 -0.217394 -4.51886
lowerneck -1.2993 7.34597 4.59568
upperneck 3.60505 10.1946 -12.7755
head 2.18417 4.89035 -4.27999
rclavicle -5.24792e-014 2.8625e-014
rhumerus 57.647 -43.3947 -41.0713
rradius 37.1071
rwrist -11.5324
rhand -27.2826 -38.4207
rfingers 7.12502
rthumb -0.693028 -68.3994
lclavicle -5.24792e-014 2.8625e-014
lhumerus 8.7631 -4.02549 25.7775
lradius 27.0447
lwrist 11.1833
lhand -16.0228 -11.3593
lfingers 7.12502
lthumb 10.1781 18.3745
rfemur 3.82602 6.44796 29.5176
rtibia 5.45706
rfoot -28.2211 -9.59235
rtoes -15.755
lfemur -53.2237 16.8049 -9.04948
ltibia 46.5584
lfoot -4.28534 -0.33239
ltoes 28.9276
147
root 7.83328 17.3735 -28.5868 18.4051 -24.6768 -12.3073
lowerback 4.50605 -0.401848 4.65026
upperback 1.26986 -0.360331 -1.95953
thorax -1.25871 -0.189034 -4.62061
lowerneck -1.17082 7.28351 4.49299
upperneck 3.40138 10.0871 -12.6781
head 2.08302 4.84891 -4.24826
rclavicle 7.95139e-015 -4.6118e-014
rhumerus 59.1329 -43.1695 -41.4235
rradius 37.1779
rwrist -11.4403
rhand -27.4699 -38.422
rfingers 7.12502
rthumb -0.873928 -68.4
lclavicle 7.95139e-015 -4.6118e-014
lhumerus 9.76676 -3.60744 25.2281
lradius 27.0288
lwrist 11.3566
lhand -16.6099 -11.3247
lfingers 7.12502
lthumb 9.61171 18.4361
rfemur 3.85429 6.3377 29.6318
rtibia 5.5034
rfoot -28.5004 -9.5505
rtoes -16.1498
lfemur -53.9079 16.8281 -9.27435
ltibia 47.0091
lfoot -4.87051 -0.229002
ltoes 27.9675
148
root 7.80818 17.3443 -28.4805 18.7899 -24.456 -12.4728
lowerback 4.63341 -0.352157 4.40972
upperback 1.35722 -0.305443 -2.2045
thorax -1.23368 -0.159153 -4.74258
lowerneck -1.12489 7.22515 4.39707
upperneck 3.25803 9.98978 -12.5636
head 2.01393 4.80795 -4.20758
rclavicle 3.97569e-014 0
rhumerus 60.6009 -42.9779 -41.8313
rradius 37.2421
rwrist -11.3716
rhand -27.6314 -38.373
rfingers 7.12502
rthumb -1.02995 -68.3503
lclavicle 3.97569e-014 0
lhumerus 10.8385 -3.19579 24.7095
lradius 26.9521
lwrist 11.4562
lhand -17.2138 -11.2625
lfingers 7.12502
lthumb 9.02907 18.5242
rfemur 3.85239 6.20302 29.7807
rtibia 5.5722
rfoot -28.7883 -9.53278
rtoes -16.5944
lfemur -54.656 16.8338 -9.49747
ltibia 47.537
lfoot -5.46643 -0.145595
ltoes 27.1108
149
root 7.78198 17.3137 -28.3736 19.2117 -24.1883 -12.6711
lowerback 4.79645 -0.303038 4.19141
upperback 1.41714 -0.249382 -2.44378
thorax -1.25679 -0.130652 -4.87165
lowerneck -1.11731 7.14329 4.30952
upperneck 3.16278 9.86498 -12.4384
head 1.96304 4.75066 -4.1638
rclavicle -7.95139e-016 -4.13472e-014
rhumerus 62.0145 -42.7595 -42.2579
rradius 37.3007
rwrist -11.2976
rhand -27.7672 -38.3016
rfingers 7.12502
rthumb -1.16109 -68.2782
lclavicle -7.95139e-016 -4.13472e-014
lhumerus 11.9287 -2.84567 24.221
lradius 26.8338
lwrist 11.5194
lhand -17.8245 -11.1854
lfingers 7.12502
lthumb 8.4397 18.626
rfemur 3.81538 6.06742 29.991
rtibia 5.66735
rfoot -29.0948 -9.55173
rtoes -17.0575
lfemur -55.4696 16.831 -9.69393
ltibia 48.1424
lfoot -6.06462 -0.0861872
ltoes 26.338
150
root 7.75478 17.2814 -28.2644 19.6619 -23.909 -12.9071
lowerback 4.97442 -0.246499 3.99407
upperback 1.46324 -0.182833 -2.67771
thorax -1.30121 -0.0978076 -5.00819
lowerneck -1.13893 7.04448 4.21753
upperneck 3.10343 9.72056 -12.302
head 1.92537 4.68153 -4.11494
rclavicle 5.00937e-014 0
rhumerus 63.3838 -42.502 -42.7056
rradius 37.3594
rwrist -11.1925
rhand -27.8681 -38.2251
rfingers 7.12502
rthumb -1.25848 -68.2012
lclavicle 5.00937e-014 0
lhumerus 13.0215 -2.54303 23.7619
lradius 26.6902
lwrist 11.562
lhand -18.422 -11.1158
lfingers 7.12502
lthumb 7.86306 18.718
rfemur 3.75909 5.95001 30.2493
rtibia 5.78897
rfoot -29.4216 -9.5841
rtoes -17.4906
lfemur -56.3116 16.8355 -9.8518
ltibia 48.8105
lfoot -6.67971 -0.0429688
ltoes 25.6448
151
root 7.72675 17.2476 -28.1509 20.1123 -23.6513 -13.169
lowerback 5.17161 -0.176924 3.81084
upperback 1.50224 -0.0989521 -2.91633
thorax -1.36149 -0.0569082 -5.15944
lowerneck -1.19431 6.9399 4.11204
upperneck 3.08865 9.57182 -12.1383
head 1.90438 4.60794 -4.05382
rclavicle 7.15625e-015 2.22639e-014
rhumerus 64.6919 -42.1941 -43.1556
rradius 37.419
rwrist -11.0486
rhand -27.9428 -38.145
rfingers 7.12502
rthumb -1.33066 -68.1206
lclavicle 7.15625e-015 2.22639e-014
lhumerus 14.094 -2.28156 23.3298
lradius 26.541
lwrist 11.5915
lhand -18.9738 -11.0576
lfingers 7.12502
lthumb 7.33043 18.7954
rfemur 3.72193 5.8467 30.523
rtibia 5.92656
rfoot -29.772 -9.58868
rtoes -17.8609
lfemur -57.1258 16.8565 -9.98104
ltibia 49.5206
lfoot -7.30566 -0.0130516
ltoes 25.0223
152
root 7.69817 17.2123 -28.0322 20.5422 -23.4227 -13.4359
lowerback 5.3713 -0.0943607 3.61963
upperback 1.54848 0.000446907 -3.15871
thorax -1.41358 -0.00793608 -5.31184
lowerneck -1.21383 6.84305 4.0228
upperneck 2.96824 9.41414 -11.6596
head 2.03116 4.55383 -4.33765
rclavicle -1.59028e-015 6.36111e-015
rhumerus 65.9598 -41.8339 -43.6107
rradius 37.4763
rwrist -10.8523
rhand -28.0045 -38.0729
rfingers 7.12502
rthumb -1.39025 -68.0481
lclavicle -1.59028e-015 6.36111e-015
lhumerus 15.1438 -2.02545 22.9497
lradius 26.3802
lwrist 11.5825
lhand -19.4849 -10.9924
lfingers 7.12502
lthumb 6.83706 18.8772
rfemur 3.72758 5.75341 30.7816
rtibia 6.06655
rfoot -30.1541 -9.55026
rtoes -18.1825
lfemur -57.887 16.8839 -10.1061
ltibia 50.2648
lfoot -7.92806 0.0159481
ltoes 24.1191
153
root 7.66915 17.1757 -27.9087 20.9473 -23.2087 -13.6986
lowerback 5.59226 -0.00253203 3.40268
upperback 1.59099 0.109902 -3.39523
thorax -1.48004 0.0456173 -5.44503
lowerneck -1.18985 6.72991 3.85663
upperneck 2.93421 9.25458 -11.5081
head 1.98132 4.47613 -4.25933
rclavicle -4.53229e-014 3.81667e-014
rhumerus 67.1605 -41.4093 -44.0293
rradius 37.5387
rwrist -10.6184
rhand -28.0445 -37.9868
rfingers 7.12502
rthumb -1.42893 -67.9618
lclavicle -4.53229e-014 3.81667e-014
lhumerus 16.1697 -1.77972 22.6484
lradius 26.1963
lwrist 11.519
lhand -19.9808 -10.9195
lfingers 7.12502
lthumb 6.35832 18.965
rfemur 3.78154 5.66373 31.0224
rtibia 6.19661
rfoot -30.5611 -9.4927
rtoes -18.5372
lfemur -58.6031 16.9066 -10.2367
ltibia 51.0499
lfoot -8.5419 0.0537366
ltoes 22.6695
